<svg xmlns="http://www.w3.org/2000/svg" viewBox="0 0 24 24">
	<path d="M 18.36 5.64 c -1.95 -1.96 -5.11 -1.96 -7.07 0 l -1.41 1.41 l -1.42 -1.41 l 1.42 -1.42 c 2.73 -2.73 7.16 -2.73 9.9 0 c 2.73 2.74 2.73 7.17 0 9.9 l -1.42 1.42 l -1.41 -1.42 l 1.41 -1.41 c 1.96 -1.96 1.96 -5.12 0 -7.07 z m -2.12 3.53 z m -12.02 0.71 l 1.42 -1.42 l 1.41 1.42 l -1.41 1.41 c -1.96 1.96 -1.96 5.12 0 7.07 c 1.95 1.96 5.11 1.96 7.07 0 l 1.41 -1.41 l 1.42 1.41 l -1.42 1.42 c -2.73 2.73 -7.16 2.73 -9.9 0 c -2.73 -2.74 -2.73 -7.17 0 -9.9 z m 1 5 l 1.2728 -1.2728 l 2.9698 1.2728 l -1.4142 -2.8284 l 1.2728 -1.2728 l 2.2627 6.2225 l -6.364 -2.1213 m 4.9497 -4.9497 l 3.182 1.0607 l 1.0607 3.182 l 1.2728 -1.2728 l -0.7071 -2.1213 l 2.1213 0.7071 l 1.2728 -1.2728 l -3.182 -1.0607 l -1.0607 -3.182 l -1.2728 1.2728 l 0.7071 2.1213 l -2.1213 -0.7071 l -1.2728 1.2728"/>
</svg>